<?xml version="1.0" encoding="UTF-8" standalone="no"?>
<!-- Created with Inkscape (http://www.inkscape.org/) -->

<svg
   xmlns:dc="http://purl.org/dc/elements/1.1/"
   xmlns:cc="http://creativecommons.org/ns#"
   xmlns:rdf="http://www.w3.org/1999/02/22-rdf-syntax-ns#"
   xmlns:svg="http://www.w3.org/2000/svg"
   xmlns="http://www.w3.org/2000/svg"
   xmlns:sodipodi="http://sodipodi.sourceforge.net/DTD/sodipodi-0.dtd"
   xmlns:inkscape="http://www.inkscape.org/namespaces/inkscape"
   version="1.2"
   width="91.831123"
   height="94.089264"
   id="svg3062"
   inkscape:version="0.48.4 r9939"
   sodipodi:docname="logo_kbird_reverse.svg">
  <sodipodi:namedview
     pagecolor="#ffffff"
     bordercolor="#666666"
     borderopacity="1"
     objecttolerance="10"
     gridtolerance="10"
     guidetolerance="10"
     inkscape:pageopacity="0"
     inkscape:pageshadow="2"
     inkscape:window-width="2495"
     inkscape:window-height="1416"
     id="namedview32"
     showgrid="false"
     fit-margin-top="0"
     fit-margin-left="0"
     fit-margin-right="0"
     fit-margin-bottom="0"
     inkscape:zoom="9.5756149"
     inkscape:cx="77.68254"
     inkscape:cy="47.221802"
     inkscape:window-x="65"
     inkscape:window-y="24"
     inkscape:window-maximized="1"
     inkscape:current-layer="layer1" />
  <defs
     id="defs3064" />
  <metadata
     id="metadata3067">
    <rdf:RDF>
      <cc:Work
         rdf:about="">
        <dc:format>image/svg+xml</dc:format>
        <dc:type
           rdf:resource="http://purl.org/dc/dcmitype/StillImage" />
        <dc:title></dc:title>
      </cc:Work>
    </rdf:RDF>
  </metadata>
  <g
     transform="translate(-184.64208,-93.888977)"
     id="layer1">
    <rect
       style="fill:#000000;fill-opacity:0"
       id="rect3003-8-3-9-6"
       transform="matrix(0,1,-1,0,0,0)"
       y="-276.47321"
       x="93.888977"
       height="91.831123"
       width="94.089264" />
    <path
       inkscape:connector-curvature="0"
       style="fill:#01afee;fill-opacity:1;stroke:none"
       id="Selection-3"
       d="m 207.28705,107.87868 c 3.94927,-1.5931 8.48273,-1.2999 12.21322,-3.5022 4.03241,-0.9347 7.4784,1.9863 10.81686,3.7466 1.98413,1.0889 5.40757,6.2627 5.29699,5.2692 -1.78317,-1.4056 -3.05516,-3.7969 -5.41237,-4.2657 0.9229,1.2209 2.50386,2.7618 2.66889,3.9343 -1.58087,-0.6537 -4.8499,-4.6368 -3.3111,-0.9494 0.48794,2.7998 -0.82506,6.7295 -4.21163,6.5568 -4.47212,-0.2026 -4.94676,6.1483 -1.87796,8.3436 3.49966,2.4478 5.23774,-3.7296 8.73172,-2.8401 3.42812,0.7553 5.85735,3.5933 8.42002,5.7868 3.85345,3.7809 6.24122,8.7045 8.18298,13.662 1.93594,3.3163 4.55442,6.3523 5.44886,10.1686 -1.43339,1.701 -4.67667,-1.8608 -6.66248,-2.4131 -1.26504,-0.7212 -6.55774,-3.5761 -3.36812,-0.937 3.29268,2.1872 3.18793,6.2265 0.33496,8.6253 -2.03474,2.6506 -4.58196,5.0962 -5.51312,8.4056 -0.0824,1.7434 2.61247,2.9993 2.41581,4.1946 -0.65407,-2.4858 -4.93834,-1.5512 -2.3181,0.8361 0.96217,0.837 2.21111,3.271 -0.0669,1.7031 0.22435,1.1349 0.97916,4.0045 -0.61259,1.6657 -1.85172,-3.6383 -1.85597,-8.4168 1.0501,-11.518 2.12104,-2.9488 5.09309,-5.5643 6.01158,-9.178 -0.39943,-3.6323 -5.0138,-5.0496 -7.75097,-6.3846 -1.41755,2.5846 -0.13766,6.0785 -0.55072,9.0191 0.11008,4.7958 -0.48738,9.589 -1.8338,14.1906 -1.14237,3.253 2.24336,4.4588 3.9206,5.9964 -3.07383,-2.0333 -6.88737,-1.4384 -10.10323,0.014 -1.08067,0.7896 -5.06068,0.1891 -1.89596,-0.643 1.61647,0.488 4.86898,-1.3971 1.39404,-0.9611 -1.33115,0.6574 -6.32946,-0.5975 -2.57994,-0.9437 1.47058,0.3009 4.72078,0.452 2.10895,-1.414 2.38164,0.7493 4.89234,2.2197 6.13831,-1.1823 1.22386,-3.6118 1.23817,-7.5156 1.69043,-11.2795 0.33314,-4.011 -0.13093,-8.0918 -1.46954,-11.8765 -0.28261,-4.3673 -4.65778,-6.1656 -7.47034,-8.6318 -1.32642,-1.9689 0.83023,4.492 -0.74564,1.3602 -1.24341,2.6899 -4.35633,-5.7967 -3.7542,-4.282 0.33195,0.5065 -2.36253,-5.3388 -1.62885,-4.0177 -1.45233,-3.8173 -3.3961,-7.6013 -3.23579,-11.8032 0.12396,-2.5409 0.17732,-5.5147 1.98305,-7.4757 1.85728,-1.6762 6.79783,0.766 4.80905,-3.3024 -2.55331,-2.8248 -6.65639,-1.5648 -9.88915,-3.1102 -2.31962,-0.6847 -5.48922,0.8991 -7.37399,-0.5671 z" />
  </g>
</svg>
